<svg width="235" height="239" viewBox="0 0 235 239" fill="none" xmlns="http://www.w3.org/2000/svg">
<circle cx="117.5" cy="121.5" r="115" stroke="white" stroke-opacity="0.38" stroke-width="5" stroke-linejoin="round" stroke-dasharray="2 2"/>
<path d="M112.392 37V25.72H113.544L120.616 35.064H120.232V25.72H121.624V37H120.488L113.416 27.656H113.784V37H112.392Z" fill="white"/>
<path d="M117 0L122.196 9.75H111.804L117 0Z" fill="white"/>
<path d="M217.657 128V116.72H224.953V117.936H219.097V121.664H224.585V122.88H219.097V126.784H224.953V128H217.657Z" fill="white"/>
<rect x="230" y="119" width="5" height="6" fill="white"/>
<rect y="119" width="5" height="6" fill="white"/>
<path d="M13.5499 128L9.59794 116.72H11.1659L14.5099 126.672H13.9339L17.4859 116.72H18.6539L21.9819 126.672H21.4699L24.9259 116.72H26.3979L22.4139 128H21.1179L17.8699 118.48H18.2059L14.8299 128H13.5499Z" fill="white"/>
<path d="M118.581 221.144C117.674 221.144 116.858 221.027 116.133 220.792C115.407 220.557 114.778 220.227 114.245 219.8L114.757 218.616C115.13 218.893 115.509 219.128 115.893 219.32C116.277 219.501 116.687 219.64 117.125 219.736C117.573 219.821 118.058 219.864 118.581 219.864C119.509 219.864 120.191 219.699 120.629 219.368C121.077 219.027 121.301 218.579 121.301 218.024C121.301 217.544 121.146 217.176 120.837 216.92C120.527 216.664 119.989 216.461 119.221 216.312L117.509 215.96C116.474 215.747 115.701 215.4 115.189 214.92C114.687 214.429 114.437 213.768 114.437 212.936C114.437 212.264 114.613 211.677 114.965 211.176C115.327 210.664 115.823 210.269 116.453 209.992C117.093 209.715 117.839 209.576 118.693 209.576C119.482 209.576 120.213 209.693 120.885 209.928C121.557 210.163 122.122 210.509 122.581 210.968L122.069 212.104C121.589 211.667 121.071 211.352 120.517 211.16C119.973 210.957 119.354 210.856 118.661 210.856C117.818 210.856 117.151 211.037 116.661 211.4C116.17 211.763 115.925 212.253 115.925 212.872C115.925 213.363 116.079 213.752 116.389 214.04C116.698 214.317 117.21 214.531 117.925 214.68L119.637 215.016C120.725 215.229 121.519 215.565 122.021 216.024C122.533 216.483 122.789 217.117 122.789 217.928C122.789 218.568 122.618 219.133 122.277 219.624C121.935 220.104 121.45 220.477 120.821 220.744C120.191 221.011 119.445 221.144 118.581 221.144Z" fill="white"/>
<rect x="114" y="233" width="10" height="6" fill="white"/>
</svg>
