<svg width="64" height="64" viewBox="0 0 64 64" fill="none" xmlns="http://www.w3.org/2000/svg">
<g clip-path="url(#clip0_334_892)">
<path opacity="0.935" fill-rule="evenodd" clip-rule="evenodd" d="M31.4375 6.31253C32.18 6.13369 32.7009 6.38369 33 7.06253C33.0834 10.1459 33.0834 13.2292 33 16.3125C32.62 17.046 32.0575 17.2335 31.3125 16.875C31.1189 16.7233 30.9732 16.5358 30.875 16.3125C30.7917 13.2292 30.7917 10.1459 30.875 7.06253C30.9974 6.75408 31.1849 6.50408 31.4375 6.31253Z" fill="#FCD01F"/>
<path opacity="0.919" fill-rule="evenodd" clip-rule="evenodd" d="M9.1876 14.8125C9.53393 14.8026 9.86726 14.8651 10.1876 15C12.4168 17.2291 14.646 19.4583 16.8751 21.6875C17.2462 22.6542 16.9337 23.2376 15.9376 23.4375C15.5965 23.4631 15.3049 23.359 15.0626 23.125C12.8299 20.934 10.6423 18.7047 8.5001 16.4375C8.32145 15.7125 8.55061 15.1708 9.1876 14.8125Z" fill="#FCD01F"/>
<path opacity="0.919" fill-rule="evenodd" clip-rule="evenodd" d="M54.0625 14.8125C55.3714 14.9718 55.7255 15.6385 55.125 16.8125C53.0209 18.9166 50.9166 21.0209 48.8125 23.125C47.7666 23.7464 47.1 23.4756 46.8125 22.3125C46.8221 22.0876 46.8846 21.8793 47 21.6875C49.306 19.3186 51.6602 17.0269 54.0625 14.8125Z" fill="#FCD01F"/>
<path opacity="0.987" fill-rule="evenodd" clip-rule="evenodd" d="M30.9376 19.0625C39.7252 19.0866 45.996 23.0449 49.7501 30.9375C50.934 34.0366 51.4131 37.2449 51.1876 40.5625C38.3542 40.5625 25.521 40.5625 12.6876 40.5625C12.1836 33.4696 14.6419 27.6571 20.0626 23.125C23.2916 20.6948 26.9166 19.3405 30.9376 19.0625Z" fill="#FCCF20"/>
<path fill-rule="evenodd" clip-rule="evenodd" d="M32.9375 29.5625C32.8959 31.6058 32.9376 33.6475 33.0625 35.6875C33.1384 35.672 33.18 35.6303 33.1875 35.5625C34.0372 34.7753 34.8706 33.9628 35.6875 33.125C36.8334 32.9375 37.3125 33.4166 37.125 34.5625C35.6912 36.1213 34.212 37.6422 32.6875 39.125C32.1875 39.375 31.6875 39.375 31.1875 39.125C29.663 37.6422 28.1837 36.1213 26.75 34.5625C26.542 33.4792 26.9795 33 28.0625 33.125C28.9589 33.9172 29.8338 34.7297 30.6875 35.5625C30.695 35.6303 30.7366 35.672 30.8125 35.6875C30.9374 33.6475 30.9791 31.6058 30.9375 29.5625C31.1985 28.8591 31.6985 28.6298 32.4375 28.875C32.683 29.0563 32.8496 29.2855 32.9375 29.5625Z" fill="#F69C7E"/>
<path fill-rule="evenodd" clip-rule="evenodd" d="M30.9375 29.5625C30.9791 31.6059 30.9374 33.6475 30.8125 35.6875C30.7366 35.672 30.695 35.6304 30.6875 35.5625C30.7709 33.5625 30.8541 31.5625 30.9375 29.5625Z" fill="#F9B452"/>
<path fill-rule="evenodd" clip-rule="evenodd" d="M32.9375 29.5625C33.0208 31.5625 33.1041 33.5625 33.1875 35.5625C33.18 35.6304 33.1383 35.672 33.0625 35.6875C32.9376 33.6475 32.8958 31.6059 32.9375 29.5625Z" fill="#F9B452"/>
<path opacity="0.939" fill-rule="evenodd" clip-rule="evenodd" d="M-0.0625 39.9375C-0.0625 39.6042 -0.0625 39.2709 -0.0625 38.9375C0.0807976 38.6907 0.289131 38.5032 0.5625 38.375C3.72916 38.2917 6.89584 38.2917 10.0625 38.375C10.972 39.2774 10.847 39.9857 9.6875 40.5C6.72916 40.5834 3.77084 40.5834 0.8125 40.5C0.434153 40.4319 0.142485 40.2444 -0.0625 39.9375Z" fill="#FCD01F"/>
<path opacity="0.939" fill-rule="evenodd" clip-rule="evenodd" d="M63.9376 38.9375C63.9376 39.2709 63.9376 39.6042 63.9376 39.9375C63.7326 40.2444 63.441 40.4319 63.0626 40.5C60.1042 40.5834 57.146 40.5834 54.1876 40.5C53.0281 39.9857 52.9031 39.2774 53.8126 38.375C56.9792 38.2917 60.146 38.2917 63.3126 38.375C63.586 38.5032 63.7943 38.6907 63.9376 38.9375Z" fill="#FCD01F"/>
<path opacity="0.945" fill-rule="evenodd" clip-rule="evenodd" d="M13.3125 42.5625C25.7293 42.5416 38.1459 42.5625 50.5625 42.625C51.1809 43.0638 51.3266 43.6263 51 44.3125C50.8351 44.5609 50.606 44.7068 50.3125 44.75C38.0625 44.8334 25.8125 44.8334 13.5625 44.75C12.6785 44.39 12.4701 43.7859 12.9375 42.9375C13.0963 42.839 13.2213 42.714 13.3125 42.5625Z" fill="#FBE665"/>
<path opacity="0.944" fill-rule="evenodd" clip-rule="evenodd" d="M15.5625 46.8125C26.4792 46.7916 37.3958 46.8125 48.3125 46.875C49.046 47.255 49.2335 47.8175 48.875 48.5625C48.7232 48.7561 48.5357 48.9019 48.3125 49C37.3958 49.0834 26.4791 49.0834 15.5625 49C14.5693 48.2713 14.5693 47.542 15.5625 46.8125Z" fill="#FBE665"/>
<path opacity="0.943" fill-rule="evenodd" clip-rule="evenodd" d="M18.8126 51.0625C27.896 51.0416 36.9793 51.0625 46.0626 51.125C46.9028 51.4996 47.1112 52.1038 46.6876 52.9375C46.5626 53.0416 46.4376 53.1459 46.3126 53.25C37.1042 53.3334 27.896 53.3334 18.6876 53.25C18.1057 52.8879 17.9182 52.3671 18.1251 51.6875C18.3008 51.407 18.53 51.1988 18.8126 51.0625Z" fill="#FBE665"/>
<path opacity="0.942" fill-rule="evenodd" clip-rule="evenodd" d="M23.1876 55.3125C29.0211 55.2916 34.8545 55.3125 40.6876 55.375C41.5685 55.7124 41.7977 56.3165 41.3751 57.1875C41.2622 57.3376 41.1165 57.4419 40.9376 57.5C34.9376 57.5834 28.9376 57.5834 22.9376 57.5C22.3557 57.1379 22.1682 56.6171 22.3751 55.9375C22.6007 55.6468 22.8716 55.4385 23.1876 55.3125Z" fill="#FBE665"/>
</g>
<defs>
<clipPath id="clip0_334_892">
<rect width="64" height="64" fill="white"/>
</clipPath>
</defs>
</svg>
