<svg width="40" height="40" viewBox="0 0 40 40" fill="none" xmlns="http://www.w3.org/2000/svg">
<path opacity="0.934" fill-rule="evenodd" clip-rule="evenodd" d="M13.789 7.61719C17.2929 7.32899 20.0143 8.6311 21.953 11.5234C22.0832 11.7838 22.2134 12.0443 22.3436 12.3047C25.4618 11.4863 27.9357 12.3977 29.7655 15.0391C29.9914 15.457 30.1867 15.8866 30.3515 16.3281C33.9104 16.186 36.5015 17.6834 38.1249 20.8203C39.3925 24.2784 38.6764 27.2602 35.9765 29.7656C34.7145 30.7421 33.2822 31.289 31.6796 31.4063C23.6587 31.4584 15.6379 31.4584 7.61708 31.4063C4.29089 31.0229 2.19454 29.213 1.32801 25.9766C0.800913 22.6176 1.98581 20.0785 4.8827 18.3594C5.54937 18.0199 6.25249 17.7986 6.99208 17.6953C6.32184 14.04 7.46767 11.1103 10.4296 8.90625C11.4771 8.26664 12.5968 7.83696 13.789 7.61719ZM14.414 8.94532C17.7941 8.91602 20.1379 10.4524 21.4452 13.5547C21.6893 13.7778 21.9757 13.8429 22.3046 13.75C24.6579 12.8702 26.6501 13.378 28.2811 15.2734C28.7675 15.9599 29.1061 16.7152 29.2968 17.5391C29.3673 17.6329 29.4584 17.698 29.5702 17.7344C32.178 17.3101 34.3525 18.0783 36.0936 20.0391C37.9098 22.6972 37.8577 25.3273 35.9374 27.9297C34.8007 29.1947 33.3814 29.9109 31.6796 30.0781C23.6327 30.1302 15.5858 30.1302 7.53895 30.0781C5.05616 29.7309 3.42855 28.3637 2.65614 25.9766C2.1211 23.5972 2.78516 21.6311 4.64833 20.0781C5.64372 19.347 6.76351 18.9563 8.0077 18.9063C8.32739 18.8208 8.50973 18.6124 8.55458 18.2813C7.53025 14.7913 8.4938 12.0048 11.4452 9.92188C12.3804 9.39742 13.37 9.07188 14.414 8.94532Z" fill="white"/>
</svg>
