<svg width="40" height="40" viewBox="0 0 40 40" fill="none" xmlns="http://www.w3.org/2000/svg">
<path opacity="0.978" fill-rule="evenodd" clip-rule="evenodd" d="M19.6485 1.21095C19.8584 1.19813 20.0667 1.21115 20.2735 1.25001C20.4167 1.28907 20.5078 1.38022 20.5469 1.52345C20.599 3.39845 20.599 5.27345 20.5469 7.14845C20.4274 7.38407 20.2321 7.48824 19.961 7.46095C19.6898 7.48824 19.4945 7.38407 19.375 7.14845C19.3229 5.27345 19.3229 3.39845 19.375 1.52345C19.4289 1.3789 19.52 1.27473 19.6485 1.21095Z" fill="white"/>
<path opacity="0.9" fill-rule="evenodd" clip-rule="evenodd" d="M6.52355 6.21093C6.7953 6.18626 7.05572 6.22532 7.3048 6.32812C8.56785 7.59114 9.83082 8.85413 11.0939 10.1172C11.2986 10.5257 11.2336 10.8773 10.8986 11.1719C10.6279 11.2357 10.3675 11.2096 10.1173 11.0937C8.85426 9.83069 7.59126 8.56773 6.32824 7.30468C6.12652 6.88435 6.19163 6.51976 6.52355 6.21093Z" fill="white"/>
<path opacity="0.9" fill-rule="evenodd" clip-rule="evenodd" d="M32.7734 6.21095C33.5986 6.16366 33.8721 6.52823 33.5937 7.3047C32.3307 8.56775 31.0677 9.83072 29.8046 11.0938C28.8541 11.3932 28.5286 11.0677 28.8281 10.1172C30.135 8.7972 31.4501 7.49515 32.7734 6.21095Z" fill="white"/>
<path opacity="0.931" fill-rule="evenodd" clip-rule="evenodd" d="M18.6329 8.71093C23.4738 8.40343 27.1847 10.2784 29.7657 14.3359C31.3352 17.2505 31.6477 20.2974 30.7032 23.4766C29.0669 27.8729 25.9288 30.438 21.2891 31.1719C16.4457 31.5171 12.7348 29.6551 10.1563 25.5859C8.58678 22.6706 8.27428 19.6237 9.21881 16.4453C10.8681 12.048 14.0062 9.46991 18.6329 8.71093ZM18.7891 10.0391C23.1224 9.76398 26.4166 11.4567 28.6719 15.1172C30.2865 18.3463 30.2865 21.5755 28.6719 24.8047C25.9693 29.0126 22.1542 30.5881 17.2266 29.5312C13.1598 28.1723 10.777 25.3728 10.0782 21.1328C9.77233 16.7307 11.5041 13.4104 15.2735 11.1719C16.3964 10.6109 17.5683 10.2333 18.7891 10.0391Z" fill="white"/>
<path opacity="0.978" fill-rule="evenodd" clip-rule="evenodd" d="M1.52354 19.3359C3.39872 19.3229 5.27372 19.3359 7.14854 19.375C7.29176 19.4141 7.38291 19.5052 7.42198 19.6484C7.47406 19.8568 7.47406 20.0651 7.42198 20.2734C7.38291 20.4167 7.29176 20.5078 7.14854 20.5469C5.27354 20.599 3.39854 20.599 1.52354 20.5469C1.28791 20.4274 1.18374 20.2321 1.21104 19.9609C1.19404 19.6824 1.2982 19.4741 1.52354 19.3359Z" fill="white"/>
<path opacity="0.978" fill-rule="evenodd" clip-rule="evenodd" d="M32.7735 19.3359C34.6487 19.3229 36.5237 19.3359 38.3985 19.375C38.5417 19.4141 38.6329 19.5052 38.672 19.6484C38.7241 19.8568 38.7241 20.0651 38.672 20.2734C38.6329 20.4167 38.5417 20.5078 38.3985 20.5469C36.5235 20.599 34.6485 20.599 32.7735 20.5469C32.5379 20.4274 32.4338 20.2321 32.461 19.9609C32.444 19.6824 32.5482 19.4741 32.7735 19.3359Z" fill="white"/>
<path opacity="0.899" fill-rule="evenodd" clip-rule="evenodd" d="M10.2734 28.7109C11.0987 28.6637 11.3721 29.0282 11.0938 29.8047C9.8307 31.0677 8.56773 32.3307 7.30469 33.5938C6.70187 33.9056 6.31124 33.7363 6.13281 33.0859C6.19029 32.9265 6.2554 32.7702 6.32812 32.6172C7.63502 31.2972 8.95016 29.9952 10.2734 28.7109Z" fill="white"/>
<path opacity="0.9" fill-rule="evenodd" clip-rule="evenodd" d="M29.0233 28.7109C29.295 28.6862 29.5555 28.7253 29.8046 28.8281C31.0676 30.0912 32.3306 31.3541 33.5936 32.6172C33.7984 33.0257 33.7333 33.3773 33.3983 33.6719C33.1277 33.7357 32.8672 33.7096 32.6171 33.5937C31.354 32.3307 30.0911 31.0677 28.828 29.8047C28.6263 29.3844 28.6914 29.0198 29.0233 28.7109Z" fill="white"/>
<path opacity="0.978" fill-rule="evenodd" clip-rule="evenodd" d="M19.6485 32.4609C19.8584 32.4481 20.0667 32.4612 20.2735 32.5C20.4167 32.5391 20.5078 32.6302 20.5469 32.7734C20.599 34.6484 20.599 36.5234 20.5469 38.3984C20.4274 38.6341 20.2321 38.7382 19.961 38.7109C19.6898 38.7382 19.4945 38.6341 19.375 38.3984C19.3229 36.5234 19.3229 34.6484 19.375 32.7734C19.4289 32.6289 19.52 32.5247 19.6485 32.4609Z" fill="white"/>
</svg>
